<svg width="16" height="16" viewBox="0 0 16 16" fill="none" xmlns="http://www.w3.org/2000/svg">
	<path d="M8.00016 1.33333C4.32016 1.33333 1.3335 4.31999 1.3335 8C1.3335 11.68 4.32016 14.6667 8.00016 14.6667C11.6802 14.6667 14.6668 11.68 14.6668 8C14.6668 4.31999 11.6802 1.33333 8.00016 1.33333ZM6.1935 10.86L3.80016 8.46666C3.73844 8.40494 3.68948 8.33167 3.65608 8.25102C3.62267 8.17038 3.60548 8.08395 3.60548 7.99666C3.60548 7.90937 3.62267 7.82294 3.65608 7.7423C3.68948 7.66166 3.73844 7.58838 3.80016 7.52666C3.86188 7.46494 3.93516 7.41598 4.0158 7.38258C4.09644 7.34917 4.18288 7.33198 4.27016 7.33198C4.35745 7.33198 4.44388 7.34917 4.52453 7.38258C4.60517 7.41598 4.67844 7.46494 4.74016 7.52666L6.66683 9.44666L11.2535 4.85999C11.3781 4.73534 11.5472 4.66531 11.7235 4.66531C11.8998 4.66531 12.0688 4.73534 12.1935 4.85999C12.3181 4.98465 12.3882 5.15371 12.3882 5.32999C12.3882 5.50628 12.3181 5.67534 12.1935 5.79999L7.1335 10.86C7.07182 10.9218 6.99856 10.9708 6.91791 11.0043C6.83726 11.0377 6.75081 11.055 6.6635 11.055C6.57618 11.055 6.48973 11.0377 6.40908 11.0043C6.32843 10.9708 6.25517 10.9218 6.1935 10.86Z" fill="#20BF6B" />
</svg>
