<svg width="16" height="16" viewBox="0 0 16 16" fill="none" xmlns="http://www.w3.org/2000/svg">
	<g opacity="0.7">
		<path d="M8.50341 4.73684C10.3861 4.73684 11.9141 6.26947 11.9141 8.1579C11.9141 8.60263 11.8254 9.02 11.6685 9.41L13.6603 11.4079C14.6903 10.5458 15.502 9.43053 16 8.1579C14.8199 5.15421 11.9072 3.02632 8.49659 3.02632C7.54161 3.02632 6.62756 3.19737 5.78172 3.50526L7.25512 4.98316C7.64393 4.82579 8.06003 4.73684 8.50341 4.73684ZM1.68213 2.86895L3.23738 4.42895L3.55116 4.74368C2.41883 5.62632 1.53206 6.80316 1 8.1579C2.18008 11.1616 5.09277 13.2895 8.50341 13.2895C9.56071 13.2895 10.5703 13.0842 11.4911 12.7147L11.7776 13.0021L13.7763 15L14.6426 14.1311L2.54843 2L1.68213 2.86895ZM5.4543 6.65263L6.5116 7.71316C6.47749 7.85684 6.45703 8.00737 6.45703 8.1579C6.45703 9.29368 7.37108 10.2105 8.50341 10.2105C8.65348 10.2105 8.80355 10.19 8.94679 10.1558L10.0041 11.2163C9.54707 11.4421 9.04229 11.5789 8.50341 11.5789C6.62074 11.5789 5.09277 10.0463 5.09277 8.1579C5.09277 7.61737 5.2292 7.11105 5.4543 6.65263ZM8.39427 6.11895L10.543 8.27421L10.5566 8.16474C10.5566 7.02895 9.64256 6.11211 8.51023 6.11211L8.39427 6.11895Z" fill="white" />
	</g>
</svg>
