<svg width="125" height="157" viewBox="0 0 125 157" fill="none" xmlns="http://www.w3.org/2000/svg">
	<path d="M54.0698 156.591C52.9492 156.59 51.8482 156.295 50.8769 155.734L4.83068 129.066C3.85995 128.501 3.05429 127.69 2.49445 126.714C1.9346 125.738 1.64042 124.632 1.64111 123.506V70.1719C1.64199 69.0473 1.93687 67.9427 2.49664 66.9685C3.05641 65.9943 3.86127 65.1847 4.83068 64.6206L50.8769 37.9432C51.8481 37.3822 52.9492 37.0871 54.0698 37.0871C55.1903 37.0871 56.291 37.3822 57.2623 37.9432L103.303 64.6206C104.273 65.1839 105.079 65.9933 105.639 66.9676C106.199 67.9419 106.495 69.0469 106.495 70.1719V123.506C106.495 124.631 106.199 125.736 105.639 126.71C105.079 127.684 104.273 128.494 103.303 129.057L57.2623 155.743C56.29 156.301 55.1895 156.593 54.0698 156.591ZM41.2687 78.341C40.9725 78.4102 40.6812 78.4995 40.3971 78.6085L40.2534 78.6687C39.9954 78.7819 39.7452 78.9124 39.5046 79.0593L39.3697 79.1555C39.141 79.3013 38.9264 79.4684 38.7288 79.6545C38.154 80.1996 37.7037 80.8629 37.4082 81.599C37.1676 82.182 37.0365 82.8047 37.0218 83.4355V83.5827C37.1992 85.7624 37.0066 87.9566 36.4525 90.0717C36.0063 92.0073 35.3686 93.9639 34.6947 96.0318V96.0498C34.497 96.6509 34.2961 97.2791 34.0955 97.9073C33.6119 99.2374 33.2117 100.597 32.8974 101.977C32.8871 102.024 32.8743 102.07 32.8586 102.115C32.831 102.184 32.8148 102.257 32.8107 102.331L32.5113 103.705C32.3795 104.093 32.2567 104.507 32.1369 104.907L32.029 105.358L31.9212 105.785C31.6386 107.051 31.4762 108.341 31.436 109.638V111.471C31.5097 112.763 31.7042 114.045 32.017 115.3C32.8579 118.603 34.5247 121.635 36.8598 124.11C37.6599 124.953 38.5307 125.725 39.4626 126.418H39.5346C39.9147 126.732 40.315 127.02 40.7327 127.281L40.9993 127.437C41.3766 127.668 41.8317 127.942 42.3319 128.191L42.5505 128.288C44.5421 129.28 46.6873 129.925 48.8942 130.196H49.0171C49.451 130.288 49.8945 130.326 50.3376 130.307H52.6501C53.0604 130.283 53.4675 130.247 53.8478 130.196L54.4888 130.1C54.8452 130.052 55.2109 129.977 55.5673 129.907L56.2711 129.736C56.5706 129.673 56.8939 129.577 57.1365 129.505L57.2623 129.469C57.439 129.418 57.6158 129.355 57.7895 129.294H57.8074L58.026 129.219L58.9455 128.88L59.7213 128.528C60.0029 128.399 60.3204 128.251 60.593 128.116C60.7727 128.026 60.9345 127.933 61.1052 127.831H61.1231L61.3688 127.689L61.3955 127.674C61.662 127.524 61.9346 127.374 62.1921 127.206L62.9171 126.695L63.2166 126.478L63.7196 126.111C63.8091 126.046 63.8952 125.976 63.9774 125.901L64.2289 125.685L64.3876 125.552C64.6362 125.345 64.8939 125.129 65.1305 124.9L73.1213 117.329L74.9603 115.592C75.0232 115.529 75.077 115.46 75.1369 115.391L75.2626 115.24V115.156C76.1675 114.143 76.6591 112.825 76.6392 111.465C76.6192 110.105 76.089 108.802 75.1548 107.817C74.2686 106.972 73.1185 106.461 71.8994 106.371C72.2864 105.695 72.5454 104.953 72.6632 104.183C72.7979 103.454 72.7594 102.704 72.5513 101.992C72.3431 101.281 71.9711 100.629 71.4651 100.089C71.0848 99.7043 70.6474 99.3809 70.1683 99.1305L69.9975 99.0344C69.465 98.7807 68.8976 98.6084 68.3142 98.5234C68.8073 97.6736 69.054 96.7024 69.0265 95.7194C68.9989 94.7365 68.6983 93.7807 68.1585 92.9601C68.0519 92.7982 67.9347 92.6436 67.8079 92.4972C67.1247 91.8837 66.2883 91.4682 65.3879 91.295L75.074 82.11C75.6628 81.5556 76.12 80.8755 76.4117 80.12C76.7035 79.3645 76.8225 78.5528 76.7598 77.745C76.6971 76.9372 76.4546 76.1538 76.0498 75.4527C75.645 74.7516 75.0882 74.1508 74.421 73.6945L74.2503 73.5982C74.0075 73.4391 73.752 73.3004 73.4865 73.1835L73.4298 73.1564C73.3246 73.0978 73.2083 73.0619 73.0884 73.0512C72.8941 72.9735 72.6935 72.9121 72.4891 72.8679C72.4113 72.8679 72.3335 72.8679 72.2526 72.8679C72.1717 72.8679 72.0939 72.8679 72.016 72.8679C71.8237 72.8364 71.6298 72.8163 71.4351 72.8078H70.4198C70.2272 72.8498 70.037 72.903 69.8505 72.9671C69.708 72.9957 69.567 73.0318 69.4283 73.0752C69.242 73.1546 69.06 73.244 68.8831 73.3428C68.8232 73.3759 68.7605 73.4059 68.7065 73.4299C68.6349 73.4613 68.5647 73.4964 68.4967 73.5351C68.2661 73.6882 68.0481 73.8589 67.8441 74.046C67.7773 74.0912 67.713 74.1404 67.6521 74.1933L50.9398 90.3182L47.5495 93.5282L47.6603 90.6849L47.8277 84.7189V83.8803C47.8641 82.4378 47.331 81.0394 46.3441 79.9899C45.3572 78.9405 43.9968 78.3251 42.5597 78.2779H42.3648C42.0404 78.285 41.7169 78.3171 41.3974 78.3741L41.2687 78.341ZM64.8249 67.542C64.3207 67.5414 63.8347 67.7301 63.4623 68.071L59.0296 72.396C58.7488 72.6815 58.5577 73.0438 58.4808 73.4375C58.404 73.8312 58.4447 74.2388 58.5975 74.6096C58.7502 74.9803 59.0085 75.2976 59.34 75.5219C59.6715 75.7461 60.0612 75.8674 60.461 75.8705H60.4822C61.0069 75.8724 61.5114 75.6673 61.8868 75.2994L66.2954 70.9623C66.5661 70.6741 66.7468 70.3127 66.8153 69.9226C66.8837 69.5324 66.8371 69.1307 66.6807 68.767C66.5243 68.4033 66.2654 68.0935 65.9356 67.8759C65.6058 67.6582 65.2196 67.5421 64.8249 67.542ZM41.8347 67.4518C41.4255 67.4514 41.0259 67.5756 40.6885 67.808C40.3511 68.0404 40.0919 68.3699 39.9452 68.7533C39.7985 69.1366 39.7713 69.5557 39.867 69.9549C39.9626 70.3542 40.1769 70.7149 40.4812 70.9894L44.9255 75.2903C45.2933 75.6569 45.791 75.8623 46.3094 75.8614H46.3273C46.5944 75.8582 46.8582 75.8019 47.1035 75.6956C47.3487 75.5893 47.5706 75.4352 47.7561 75.2423V75.3024C48.1339 74.9216 48.3462 74.4061 48.3462 73.8687C48.3462 73.3314 48.1339 72.8159 47.7561 72.4351L43.2872 68.074C43.0985 67.8787 42.8728 67.7234 42.6233 67.617C42.3738 67.5107 42.1057 67.4555 41.8347 67.4548V67.4518ZM53.1111 62.5317C52.5752 62.5325 52.0617 62.7465 51.6827 63.1268C51.3037 63.5071 51.0905 64.0227 51.0897 64.5605V70.758C51.0897 71.296 51.3025 71.812 51.6816 72.1925C52.0607 72.573 52.575 72.7868 53.1111 72.7868C53.6473 72.7868 54.1615 72.573 54.5407 72.1925C54.9198 71.812 55.133 71.296 55.133 70.758V64.5605C55.1322 64.0227 54.9189 63.5071 54.5399 63.1268C54.161 62.7465 53.6471 62.5325 53.1111 62.5317ZM40.6757 126.057V125.973C39.7965 125.377 38.9654 124.713 38.1899 123.987L39.7653 124.32H39.8732C39.9614 124.32 40.0475 124.294 40.1222 124.247C40.1968 124.2 40.2569 124.132 40.2955 124.053L41.5923 121.621L44.8118 122.691C44.9165 122.728 45.0308 122.729 45.1361 122.694C45.2414 122.659 45.3316 122.589 45.3928 122.496L46.9415 119.992L50.7811 120.392H50.8199C50.9084 120.392 50.9954 120.368 51.0718 120.323C51.1481 120.278 51.211 120.214 51.2542 120.136L52.6468 117.705L55.3424 117.242C55.4055 117.237 55.4653 117.212 55.5132 117.17L57.3102 116.052C57.3746 116.019 57.4308 115.971 57.4739 115.913C57.5171 115.854 57.546 115.787 57.5588 115.715C57.5711 115.644 57.5669 115.57 57.5467 115.5C57.5265 115.431 57.4909 115.366 57.4421 115.312V115.397C57.4097 115.34 57.3658 115.29 57.3134 115.252C57.2611 115.213 57.2011 115.185 57.1376 115.17C57.074 115.155 57.0083 115.154 56.9442 115.166C56.8801 115.178 56.8189 115.204 56.765 115.24L55.058 116.286L52.2245 116.785C52.1532 116.797 52.0855 116.825 52.0267 116.867C51.968 116.909 51.9202 116.965 51.8864 117.029L50.5533 119.361L46.7287 118.958H46.675C46.5926 118.958 46.5117 118.98 46.4402 119.021C46.3688 119.062 46.309 119.121 46.2673 119.193L44.7402 121.624L41.4844 120.53C41.372 120.492 41.2498 120.496 41.14 120.541C41.0302 120.586 40.9397 120.668 40.8852 120.774L39.5767 123.277L36.9498 122.709C36.1828 121.809 35.5011 120.839 34.9133 119.812C40.6339 119.085 54.5817 116.851 60.5838 111.829C60.0823 113.818 59.0561 115.635 57.6129 117.089C55.8801 118.95 53.8643 120.523 51.6407 121.75C48.1815 123.651 44.4931 125.097 40.6665 126.054L40.6757 126.057ZM38.1779 123.984L36.4887 123.626C36.1893 123.305 35.9062 122.969 35.6409 122.619C35.724 122.546 35.8299 122.505 35.9403 122.502H36.0303L36.9527 122.7C37.1474 122.929 37.3513 123.157 37.5519 123.376C37.7526 123.596 37.9561 123.779 38.1508 123.978L38.1779 123.984ZM52.12 110.368C49.7466 110.104 47.5308 109.045 45.83 107.363L56.7771 101.652C56.9727 102.673 57.0561 103.712 57.0257 104.751C57.069 105.627 56.9138 106.502 56.572 107.309C56.2301 108.116 55.7107 108.836 55.0522 109.413C54.1968 110.027 53.1717 110.358 52.12 110.359V110.368ZM33.293 110.368C32.9803 110.369 32.6693 110.323 32.3705 110.23C32.3741 108.917 32.5114 107.608 32.7807 106.323L37.0785 108.571C36.0532 109.578 34.7195 110.208 33.293 110.359V110.368Z" fill="white" />
	<path d="M60.8549 0.00572991C56.1471 -0.292424 0.0993917 11.1368 0.000279918 12.876C-0.148388 15.46 58.9718 32.107 58.9718 32.107C58.9718 32.107 119.727 23.9574 119.926 20.5287C120.074 18.1434 63.9274 0.204499 60.8549 0.00572991Z" fill="#253C71" />
	<path d="M87.8628 22.0691C86.0293 16.4042 59.7151 11.7331 59.7151 11.7331C59.7151 11.7331 35.4822 11.3853 32.9053 16.752C22.6473 38.3185 26.1657 52.4808 26.1657 52.4808C26.1657 52.4808 33.4505 50.344 36.0274 50.1453C41.429 49.5987 52.2817 51.5863 57.7329 51.9342C63.184 52.282 74.1854 51.6857 79.4879 52.8783C82.0152 53.4747 88.9531 56.5059 88.9531 56.5059C88.9531 56.5059 94.7511 43.238 87.8628 22.0691Z" fill="#3A71CB" />
	<path d="M68.3874 14.8637C64.0265 13.8699 60.1611 13.4227 60.1611 13.4227C57.3811 13.4156 54.6025 13.5483 51.8357 13.8202C50.1013 14.6153 48.565 15.7085 47.8217 17.3484C41.3794 31.7094 39.645 42.9399 39.0503 50.0459C44.8483 50.195 53.1737 51.636 57.7329 51.9342C62.292 52.2324 70.7165 51.8845 76.465 52.4311C76.8119 45.3251 76.5146 33.9953 71.9059 18.8888C71.4103 17.1993 70.0228 15.8576 68.3874 14.8637Z" fill="#4389ED" />
	<path d="M119.034 28.1813C115.02 32.7033 111.154 38.6663 104.216 37.5234C97.2785 36.3805 93.0663 29.0757 90.9849 23.0133C88.9036 16.9508 88.0115 11.1865 84.6913 5.96879C84.0471 4.87556 82.3126 5.86941 83.0064 6.96264C89.4487 17.1496 88.2098 34.045 101.689 38.8651C107.586 40.9522 112.889 38.3185 116.853 33.8462C120.818 29.3739 122.255 24.5537 119.034 28.1813Z" fill="#F4BA37" />
	<path d="M117.993 25.4482C114.673 28.9763 112.542 33.4486 114.127 35.0885H114.177C115.911 36.5793 120.173 34.0946 123.444 30.5665C123.444 30.5665 123.593 29.1751 121.511 27.1874H121.462C119.331 25.2494 117.993 25.4482 117.993 25.4482Z" fill="#F4BA37" />
</svg>
