<svg width="60" height="28" viewBox="0 0 60 28" fill="none" xmlns="http://www.w3.org/2000/svg">
	<g clip-path="url(#clip0)">
		<path d="M9.66562 27.927C9.46531 27.927 9.2685 27.8743 9.09487 27.7743L0.863626 23.0181C0.690097 22.9174 0.546077 22.7728 0.445999 22.5987C0.345921 22.4247 0.293333 22.2273 0.293457 22.0265V12.5147C0.293614 12.3142 0.346327 12.1172 0.446391 11.9434C0.546455 11.7697 0.690333 11.6253 0.863626 11.5247L9.09487 6.76694C9.26848 6.6669 9.46531 6.61425 9.66562 6.61425C9.86594 6.61425 10.0627 6.6669 10.2363 6.76694L18.4665 11.5247C18.64 11.6252 18.784 11.7695 18.8841 11.9433C18.9843 12.117 19.0371 12.3141 19.0372 12.5147V22.0265C19.0371 22.2271 18.9843 22.4242 18.8841 22.598C18.784 22.7717 18.64 22.9161 18.4665 23.0165L10.2363 27.7759C10.0625 27.8753 9.86579 27.9274 9.66562 27.927ZM7.3773 13.9716C7.32434 13.984 7.27228 13.9999 7.22149 14.0194L7.19581 14.0301C7.14968 14.0503 7.10497 14.0735 7.06196 14.0998L7.03784 14.1169C6.99694 14.1429 6.95859 14.1727 6.92327 14.2059C6.82052 14.3031 6.74002 14.4214 6.6872 14.5527C6.64418 14.6567 6.62075 14.7677 6.61812 14.8802V14.9065C6.64984 15.2952 6.61541 15.6865 6.51636 16.0637C6.43659 16.4089 6.32259 16.7579 6.20213 17.1267V17.1299C6.16679 17.2371 6.13088 17.3491 6.09501 17.4612C6.00857 17.6984 5.93703 17.9408 5.88084 18.1869C5.879 18.1953 5.87671 18.2035 5.87391 18.2116C5.86897 18.2239 5.86608 18.2369 5.86535 18.2502L5.81182 18.4952C5.78826 18.5643 5.76631 18.6383 5.7449 18.7096L5.72562 18.79L5.70634 18.8661C5.65582 19.0919 5.62678 19.322 5.61961 19.5533V19.8803C5.63278 20.1106 5.66754 20.3393 5.72346 20.5631C5.87378 21.1521 6.17173 21.6928 6.58917 22.1342C6.73218 22.2846 6.88785 22.4223 7.05444 22.5459H7.06732C7.13526 22.6018 7.20681 22.6532 7.28149 22.6997L7.32913 22.7276C7.39659 22.7689 7.47795 22.8177 7.56736 22.8622L7.60644 22.8793C7.96246 23.0562 8.34592 23.1713 8.74044 23.2197H8.7624C8.83997 23.2361 8.91924 23.2428 8.99847 23.2395H9.41185C9.48519 23.2352 9.55796 23.2288 9.62595 23.2197L9.74052 23.2025C9.80423 23.194 9.86961 23.1805 9.93332 23.1682L10.0591 23.1377C10.1127 23.1264 10.1705 23.1093 10.2138 23.0964L10.2363 23.09C10.2679 23.0808 10.2995 23.0696 10.3306 23.0589H10.3338L10.3728 23.0455L10.5372 22.9849L10.6759 22.9222C10.7262 22.8991 10.783 22.8729 10.8317 22.8488C10.8638 22.8327 10.8928 22.8161 10.9233 22.7978H10.9265L10.9704 22.7726L10.9752 22.77C11.0228 22.7432 11.0715 22.7164 11.1176 22.6863L11.2472 22.5952L11.3007 22.5566L11.3906 22.4912C11.4066 22.4795 11.422 22.467 11.4367 22.4537L11.4817 22.4151L11.51 22.3915C11.5545 22.3545 11.6006 22.3159 11.6428 22.2752L13.0713 20.925L13.4 20.6151C13.4113 20.6039 13.4209 20.5915 13.4316 20.5792L13.4541 20.5524V20.5374C13.6158 20.3568 13.7037 20.1217 13.7001 19.8792C13.6966 19.6366 13.6018 19.4042 13.4348 19.2284C13.2764 19.0778 13.0708 18.9866 12.8529 18.9706C12.922 18.8501 12.9683 18.7178 12.9894 18.5804C13.0135 18.4504 13.0066 18.3166 12.9694 18.1897C12.9322 18.0629 12.8657 17.9466 12.7752 17.8503C12.7072 17.7817 12.629 17.724 12.5434 17.6793L12.5129 17.6622C12.4177 17.6169 12.3163 17.5862 12.212 17.5711C12.3001 17.4195 12.3442 17.2463 12.3393 17.071C12.3344 16.8957 12.2806 16.7252 12.1841 16.5789C12.1651 16.55 12.1441 16.5224 12.1215 16.4963C11.9993 16.3869 11.8498 16.3128 11.6889 16.2819L13.4203 14.6438C13.5256 14.5449 13.6073 14.4237 13.6595 14.2889C13.7116 14.1542 13.7329 14.0094 13.7217 13.8654C13.7105 13.7213 13.6671 13.5816 13.5948 13.4565C13.5224 13.3315 13.4229 13.2243 13.3036 13.143L13.2731 13.1258C13.2297 13.0974 13.184 13.0727 13.1366 13.0518L13.1264 13.047C13.1076 13.0365 13.0868 13.0301 13.0654 13.0282C13.0307 13.0144 12.9948 13.0034 12.9583 12.9955C12.9444 12.9955 12.9304 12.9955 12.916 12.9955C12.9015 12.9955 12.8876 12.9955 12.8737 12.9955C12.8393 12.9899 12.8047 12.9864 12.7699 12.9848H12.5884C12.5539 12.9923 12.5199 13.0018 12.4866 13.0132C12.4611 13.0183 12.4359 13.0248 12.4111 13.0325C12.3778 13.0467 12.3453 13.0626 12.3137 13.0802C12.303 13.0861 12.2917 13.0915 12.2821 13.0958C12.2693 13.1014 12.2567 13.1076 12.2446 13.1145C12.2034 13.1418 12.1644 13.1723 12.1279 13.2057C12.116 13.2137 12.1045 13.2225 12.0936 13.2319L9.10611 16.1077L8.50006 16.6802L8.51986 16.1731L8.54979 15.1091V14.9595C8.55629 14.7023 8.46099 14.4529 8.28458 14.2657C8.10816 14.0786 7.86498 13.9688 7.60807 13.9604H7.57324C7.51524 13.9617 7.45743 13.9674 7.40031 13.9775L7.3773 13.9716ZM11.5882 12.0457C11.4981 12.0456 11.4112 12.0793 11.3446 12.1401L10.5522 12.9114C10.502 12.9623 10.4679 13.0269 10.4541 13.0971C10.4404 13.1673 10.4477 13.24 10.475 13.3062C10.5023 13.3723 10.5485 13.4289 10.6077 13.4689C10.667 13.5089 10.7367 13.5305 10.8081 13.531H10.8119C10.9057 13.5314 10.9959 13.4948 11.063 13.4292L11.8511 12.6557C11.8995 12.6043 11.9318 12.5398 11.944 12.4703C11.9562 12.4007 11.9479 12.329 11.92 12.2642C11.892 12.1993 11.8457 12.1441 11.7868 12.1052C11.7278 12.0664 11.6588 12.0457 11.5882 12.0457ZM7.47847 12.0296C7.40532 12.0295 7.33389 12.0517 7.27358 12.0931C7.21327 12.1346 7.16694 12.1934 7.14071 12.2617C7.11449 12.3301 7.10962 12.4048 7.12673 12.476C7.14383 12.5472 7.18212 12.6116 7.23652 12.6605L8.031 13.4276C8.09674 13.493 8.18571 13.5296 8.27837 13.5294H8.28157C8.32932 13.5289 8.37648 13.5188 8.42032 13.4998C8.46416 13.4809 8.50383 13.4534 8.53698 13.419V13.4297C8.60453 13.3618 8.64247 13.2699 8.64247 13.174C8.64247 13.0782 8.60453 12.9863 8.53698 12.9184L7.73813 12.1406C7.7044 12.1058 7.66404 12.078 7.61945 12.0591C7.57485 12.0401 7.52693 12.0303 7.47847 12.0302V12.0296ZM9.49426 11.1522C9.39845 11.1523 9.30666 11.1905 9.23891 11.2583C9.17117 11.3261 9.13305 11.4181 9.1329 11.514V12.6193C9.1329 12.7152 9.17094 12.8072 9.23872 12.8751C9.30649 12.9429 9.39841 12.9811 9.49426 12.9811C9.59011 12.9811 9.68203 12.9429 9.7498 12.8751C9.81758 12.8072 9.85568 12.7152 9.85568 12.6193V11.514C9.85554 11.4181 9.81742 11.3261 9.74967 11.2583C9.68193 11.1905 9.59006 11.1523 9.49426 11.1522ZM7.27129 22.4816V22.4666C7.11412 22.3603 6.96556 22.2418 6.82694 22.1123L7.10856 22.1718H7.12784C7.14361 22.1716 7.159 22.1671 7.17234 22.1587C7.18568 22.1503 7.19643 22.1382 7.20332 22.124L7.43514 21.6904L8.01067 21.8812C8.02938 21.8879 8.04982 21.888 8.06864 21.8817C8.08747 21.8754 8.10358 21.863 8.11452 21.8464L8.39137 21.3999L9.07774 21.4712H9.08467C9.10049 21.4712 9.11605 21.467 9.1297 21.4589C9.14335 21.4509 9.1546 21.4394 9.16231 21.4256L9.41126 20.992L9.89313 20.9094C9.9044 20.9085 9.91509 20.904 9.92365 20.8966L10.2449 20.6971C10.2564 20.6912 10.2664 20.6827 10.2742 20.6723C10.2819 20.6619 10.287 20.6499 10.2893 20.6371C10.2915 20.6243 10.2908 20.6112 10.2872 20.5988C10.2835 20.5863 10.2772 20.5749 10.2685 20.5653V20.5803C10.2627 20.5702 10.2548 20.5614 10.2455 20.5544C10.2361 20.5475 10.2254 20.5425 10.214 20.5399C10.2027 20.5373 10.1909 20.537 10.1795 20.5392C10.168 20.5414 10.1571 20.5459 10.1474 20.5524L9.84228 20.739L9.33577 20.8279C9.32302 20.83 9.31091 20.835 9.30041 20.8425C9.28992 20.8501 9.28136 20.8599 9.27532 20.8714L9.03703 21.2873L8.35333 21.2155H8.34373C8.329 21.2155 8.31454 21.2194 8.30177 21.2267C8.289 21.234 8.27831 21.2446 8.27085 21.2573L7.99786 21.6909L7.41586 21.4958C7.39577 21.4891 7.37393 21.4898 7.3543 21.4977C7.33466 21.5057 7.3185 21.5204 7.30874 21.5393L7.07483 21.9857L6.60525 21.8844C6.46813 21.7239 6.34629 21.5509 6.24121 21.3677C7.26382 21.238 9.75714 20.8397 10.8301 19.944C10.7404 20.2988 10.557 20.6228 10.299 20.8821C9.98924 21.2139 9.6289 21.4945 9.2314 21.7134C8.61304 22.0524 7.9537 22.3104 7.26966 22.481L7.27129 22.4816ZM6.82478 22.1117L6.52283 22.0479C6.46931 21.9907 6.41869 21.9308 6.37127 21.8684C6.38613 21.8554 6.40506 21.848 6.4248 21.8475H6.44088L6.60577 21.8828C6.64057 21.9236 6.67702 21.9643 6.71289 22.0034C6.74876 22.0426 6.78514 22.0753 6.81994 22.1106L6.82478 22.1117ZM44.5977 22.0581C44.4099 22.0619 44.222 22.055 44.035 22.0372C43.7994 22.0259 43.5775 21.923 43.4165 21.7504C43.2555 21.5778 43.168 21.3492 43.1728 21.1131C43.1775 20.877 43.274 20.652 43.4419 20.486C43.6097 20.3201 43.8356 20.2262 44.0714 20.2244C44.0993 20.2244 44.125 20.2244 44.1555 20.2281C44.3038 20.2378 44.4441 20.2421 44.5726 20.2421C44.9461 20.285 45.3229 20.1981 45.6401 19.996C46.1038 19.5527 46.0685 17.9345 46.0294 15.8863V15.7791V15.7764C46.0165 15.1364 46.0015 14.4107 45.9994 13.627C45.9985 13.3868 46.0929 13.1561 46.2618 12.9856C46.4308 12.8151 46.6605 12.7188 46.9004 12.7179C47.1404 12.717 47.3708 12.8115 47.5411 12.9807C47.7114 13.1499 47.8076 13.3798 47.8085 13.62C47.8085 14.3286 47.8225 14.9917 47.8353 15.5765V15.6001C47.8353 15.6841 47.8371 15.767 47.8407 15.8488V15.8568C47.8942 18.6367 47.93 20.3144 46.8908 21.3061C46.5828 21.5948 46.2081 21.8027 45.8002 21.9113C45.408 22.0149 45.0034 22.0638 44.5977 22.0565V22.0581ZM41.199 21.9134H41.1529H37.1937C36.9535 21.9131 36.7233 21.8175 36.5534 21.6474C36.3836 21.4774 36.2881 21.2469 36.2878 21.0064V13.6286C36.2864 13.3882 36.3799 13.157 36.548 12.9854C36.6319 12.9002 36.732 12.8326 36.8423 12.7866C36.9526 12.7406 37.0709 12.7171 37.1905 12.7174H41.1524H41.1985C41.4388 12.7174 41.6692 12.8129 41.8391 12.983C42.0089 13.1531 42.1044 13.3838 42.1044 13.6243C42.1044 13.8648 42.0089 14.0955 41.8391 14.2656C41.6692 14.4357 41.4388 14.5313 41.1985 14.5313H41.1524H38.0921V16.4073H40.3183H40.3644C40.6046 16.4073 40.835 16.5029 41.0049 16.673C41.1748 16.8431 41.2702 17.0738 41.2702 17.3143C41.2702 17.5548 41.1748 17.7855 41.0049 17.9556C40.835 18.1257 40.6046 18.2213 40.3644 18.2213H40.3183H38.0921V20.0973H41.1524V20.1091H41.1985C41.4388 20.1091 41.6692 20.2047 41.8391 20.3748C42.0089 20.5449 42.1044 20.7755 42.1044 21.0161C42.1044 21.2566 42.0089 21.4873 41.8391 21.6574C41.6692 21.8275 41.4388 21.923 41.1985 21.923L41.199 21.9134ZM33.6627 21.9043C33.6354 21.9043 33.6092 21.9043 33.5803 21.9005C33.3636 21.9001 33.1542 21.822 32.9902 21.6802C32.8262 21.5385 32.7183 21.3426 32.6862 21.1281L32.0169 16.5987L30.3673 19.5608C30.2898 19.7013 30.1761 19.8185 30.0379 19.9001C29.8998 19.9817 29.7423 20.0247 29.5819 20.0247C29.4215 20.0247 29.2641 19.9817 29.1259 19.9001C28.9878 19.8185 28.874 19.7013 28.7965 19.5608L27.0709 16.5456L26.4225 21.1217C26.3867 21.3324 26.2775 21.5236 26.1144 21.6615C25.9512 21.7993 25.7446 21.8749 25.5311 21.8748C25.4884 21.8747 25.4458 21.8717 25.4036 21.8657C25.1705 21.8328 24.9593 21.7104 24.8148 21.5243C24.6703 21.3381 24.6038 21.103 24.6295 20.8687L25.6328 13.6999C25.6592 13.5129 25.7432 13.3387 25.8731 13.2018C26.0031 13.0649 26.1726 12.9721 26.3578 12.9363C26.5431 12.9005 26.7348 12.9236 26.9064 13.0022C27.0779 13.0809 27.2206 13.2112 27.3145 13.3751L29.5707 17.2805L31.7321 13.3981C31.8232 13.2315 31.9645 13.0979 32.1358 13.0162C32.3071 12.9345 32.4998 12.9089 32.6864 12.943C32.8731 12.9771 33.0443 13.0692 33.1757 13.2062C33.3071 13.3432 33.3921 13.5182 33.4186 13.7063L34.4771 20.873C34.4948 20.9907 34.4892 21.1108 34.4605 21.2263C34.4317 21.3418 34.3805 21.4506 34.3097 21.5463C34.239 21.6419 34.15 21.7227 34.048 21.7838C33.946 21.845 33.8329 21.8854 33.7152 21.9027L33.6627 21.9043ZM58.8195 21.8099C58.6825 21.8104 58.5471 21.7794 58.4238 21.7195C58.3005 21.6596 58.1925 21.5723 58.108 21.4642L55.1847 17.7394C55.1847 18.202 55.1794 18.6694 55.1756 19.1212V19.148C55.1708 19.78 55.1665 20.3761 55.1665 20.9094C55.1648 21.1483 55.0689 21.3769 54.8998 21.5454C54.7307 21.714 54.5019 21.8088 54.2633 21.8094C54.1445 21.8088 54.0269 21.7847 53.9174 21.7385C53.8079 21.6924 53.7086 21.625 53.6251 21.5404C53.5416 21.4558 53.4756 21.3555 53.4309 21.2453C53.3861 21.1351 53.3635 21.0171 53.3643 20.8982C53.3847 16.3473 53.3847 13.9952 53.3643 13.7085C53.3498 13.5909 53.3587 13.4717 53.3905 13.3576C53.4223 13.2436 53.4764 13.137 53.5497 13.044C53.6229 12.951 53.7139 12.8735 53.8172 12.816C53.9206 12.7584 54.0344 12.722 54.1519 12.7088C54.183 12.7056 54.214 12.704 54.2451 12.704C54.469 12.7048 54.6852 12.7867 54.8537 12.9344C55.0222 13.0821 55.1318 13.2858 55.1622 13.508C55.19 13.7004 55.19 15.0228 55.19 16.5531L57.738 13.2925C57.8091 13.1927 57.8996 13.1084 58.0042 13.0446C58.1087 12.9809 58.225 12.939 58.3462 12.9215C58.4673 12.9039 58.5908 12.9112 58.709 12.9428C58.8273 12.9744 58.938 13.0296 59.0343 13.1052C59.1307 13.1808 59.2107 13.2751 59.2697 13.3825C59.3286 13.49 59.3651 13.6082 59.3771 13.7302C59.3891 13.8521 59.3763 13.9753 59.3395 14.0921C59.3026 14.209 59.2425 14.3172 59.1627 14.4101L57.0211 17.1438L59.53 20.3396L59.5348 20.3444C59.6392 20.4782 59.704 20.6386 59.7219 20.8074C59.7398 20.9761 59.7101 21.1466 59.636 21.2992C59.5619 21.4519 59.4465 21.5807 59.3029 21.671C59.1594 21.7613 58.9933 21.8094 58.8238 21.8099H58.8195ZM50.5562 21.5784C50.316 21.5781 50.0858 21.4824 49.9159 21.3124C49.7461 21.1424 49.6506 20.9119 49.6503 20.6714V13.6286C49.6503 13.388 49.7457 13.1574 49.9156 12.9873C50.0855 12.8172 50.3159 12.7216 50.5562 12.7216C50.7964 12.7216 51.0269 12.8172 51.1968 12.9873C51.3667 13.1574 51.4621 13.388 51.4621 13.6286V20.6816C51.459 20.9201 51.3621 21.1478 51.1926 21.3153C51.023 21.4829 50.7944 21.5768 50.5562 21.5768V21.5784ZM9.31708 19.6835C8.89281 19.6363 8.49671 19.4475 8.19269 19.1475L10.1496 18.1291C10.1846 18.3111 10.1995 18.4964 10.194 18.6817C10.2018 18.8379 10.174 18.9939 10.1129 19.1379C10.0518 19.2819 9.95895 19.4102 9.84124 19.5131C9.68833 19.6226 9.50509 19.6816 9.31708 19.6819V19.6835ZM5.95155 19.6835C5.89566 19.6837 5.84007 19.6754 5.78666 19.6589C5.78729 19.4247 5.81185 19.1912 5.85999 18.962L6.62825 19.363C6.44497 19.5425 6.20657 19.6549 5.95155 19.6819V19.6835Z" fill="#8854D0" />
		<path d="M10.8784 0.00102189C10.0369 -0.052152 0.0177673 1.98618 5.00383e-05 2.29637C-0.0265259 2.75721 10.5418 5.72608 10.5418 5.72608C10.5418 5.72608 21.4025 4.27266 21.4379 3.66116C21.4645 3.23577 11.4277 0.0364712 10.8784 0.00102189Z" fill="#253C71" />
		<path d="M15.7064 3.9359C15.3786 2.92559 10.6747 2.09253 10.6747 2.09253C10.6747 2.09253 6.34279 2.0305 5.88214 2.98763C4.0484 6.83387 4.67737 9.35963 4.67737 9.35963C4.67737 9.35963 5.97959 8.97856 6.44024 8.94311C7.40583 8.84562 9.34587 9.20011 10.3203 9.26215C11.2948 9.32418 13.2614 9.21784 14.2093 9.43054C14.6611 9.53688 15.9013 10.0775 15.9013 10.0775C15.9013 10.0775 16.9377 7.71125 15.7064 3.9359Z" fill="#3A71CB" />
		<path d="M12.225 2.65086C11.4455 2.47361 10.7545 2.39385 10.7545 2.39385C10.2575 2.39259 9.76083 2.41626 9.26624 2.46475C8.95619 2.60655 8.68157 2.80152 8.54869 3.09397C7.39707 5.65518 7.08702 7.65807 6.98071 8.92538C8.01717 8.95197 9.50543 9.20897 10.3204 9.26215C11.1354 9.31532 12.6414 9.25328 13.669 9.35077C13.731 8.08346 13.6778 6.06285 12.854 3.3687C12.7654 3.06738 12.5174 2.8281 12.225 2.65086Z" fill="#4389ED" />
		<path d="M21.2783 5.02596C20.5608 5.83243 19.8698 6.89591 18.6296 6.69207C17.3894 6.48824 16.6364 5.18548 16.2643 4.10428C15.8923 3.02308 15.7328 1.99504 15.1393 1.0645C15.0241 0.86953 14.7141 1.04678 14.8381 1.24175C15.9897 3.05852 15.7683 6.07171 18.1778 6.93136C19.232 7.30358 20.1799 6.83387 20.8885 6.03626C21.5972 5.23865 21.8541 4.37901 21.2783 5.02596Z" fill="#F4BA37" />
		<path d="M21.0923 4.53853C20.4988 5.16776 20.1178 5.96536 20.4013 6.25782H20.4102C20.7202 6.52369 21.4821 6.08057 22.0667 5.45135C22.0667 5.45135 22.0933 5.2032 21.7213 4.84871H21.7124C21.3315 4.50308 21.0923 4.53853 21.0923 4.53853Z" fill="#F4BA37" />
		<path d="M40.4379 27.2736H41.2391L40.1495 24.023H39.2156L38.126 27.2736H38.9272L39.0874 26.7628H40.2777L40.4379 27.2736ZM39.3071 26.0662L39.6825 24.8728L40.058 26.0662H39.3071Z" fill="#253C71" />
		<path d="M42.9252 27.3386C43.5112 27.3386 44.024 27.046 44.2987 26.5863L43.6669 26.2148C43.5296 26.4656 43.2503 26.6142 42.9252 26.6142C42.3575 26.6142 41.9913 26.2287 41.9913 25.6483C41.9913 25.0678 42.3575 24.6824 42.9252 24.6824C43.2503 24.6824 43.525 24.831 43.6669 25.0818L44.2987 24.7103C44.0194 24.2506 43.5067 23.958 42.9252 23.958C41.9593 23.958 41.2588 24.6917 41.2588 25.6483C41.2588 26.6049 41.9593 27.3386 42.9252 27.3386Z" fill="#253C71" />
		<path d="M46.6793 27.2736H47.4804L46.3908 24.023H45.4569L44.3673 27.2736H45.1685L45.3287 26.7628H46.519L46.6793 27.2736ZM45.5485 26.0662L45.9239 24.8728L46.2993 26.0662H45.5485Z" fill="#253C71" />
		<path d="M49.0356 24.023H47.7537V27.2736H49.0356C49.9192 27.2736 50.5921 26.5677 50.5921 25.6483C50.5921 24.7288 49.9192 24.023 49.0356 24.023ZM49.0356 26.5584H48.4862V24.7381H49.0356C49.5392 24.7381 49.8871 25.0911 49.8871 25.6483C49.8871 26.2055 49.5392 26.5584 49.0356 26.5584Z" fill="#253C71" />
		<path d="M51.7365 26.5584V25.9826H52.881V25.2768H51.7365V24.7381H52.9955V24.023H51.004V27.2736H53.0184V26.5584H51.7365Z" fill="#253C71" />
		<path d="M56.6364 24.023H55.9039L55.034 25.4672L54.1642 24.023H53.4317V27.2736H54.1642V25.3836L54.9928 26.7628H55.0752L55.9039 25.3836V27.2736H56.6364V24.023Z" fill="#253C71" />
		<path d="M59.7967 24.023H58.9635L58.3546 25.2768L57.7457 24.023H56.9125L57.9884 26.0244V27.2736H58.7209V26.0244L59.7967 24.023Z" fill="#253C71" />
	</g>
	<defs>
		<clipPath id="clip0">
			<rect width="59.7966" height="28" fill="white" />
		</clipPath>
	</defs>
</svg>
