<svg width="16" height="16" viewBox="0 0 16 16" fill="none" xmlns="http://www.w3.org/2000/svg">
	<path d="M8.00016 1.33334C4.32016 1.33334 1.3335 4.32001 1.3335 8.00001C1.3335 11.68 4.32016 14.6667 8.00016 14.6667C11.6802 14.6667 14.6668 11.68 14.6668 8.00001C14.6668 4.32001 11.6802 1.33334 8.00016 1.33334ZM6.66683 10.3333V5.66668C6.66683 5.60477 6.68407 5.54409 6.71661 5.49143C6.74916 5.43877 6.79572 5.39622 6.85109 5.36854C6.90646 5.34085 6.96844 5.32913 7.0301 5.33469C7.09175 5.34025 7.15064 5.36287 7.20016 5.40001L10.3135 7.73334C10.4935 7.86668 10.4935 8.13334 10.3135 8.26668L7.20016 10.6C7.15064 10.6372 7.09175 10.6598 7.0301 10.6653C6.96844 10.6709 6.90646 10.6592 6.85109 10.6315C6.79572 10.6038 6.74916 10.5612 6.71661 10.5086C6.68407 10.4559 6.66683 10.3952 6.66683 10.3333Z" fill="#8A8C90" />
</svg>
