<svg width="20" height="20" viewBox="0 0 20 20" fill="none" xmlns="http://www.w3.org/2000/svg">
<path d="M14.9998 10.8316H10.8332V14.9983C10.8332 15.2193 10.7454 15.4313 10.5891 15.5876C10.4328 15.7438 10.2209 15.8316 9.99984 15.8316C9.77882 15.8316 9.56686 15.7438 9.41058 15.5876C9.2543 15.4313 9.1665 15.2193 9.1665 14.9983V10.8316H4.99984C4.77882 10.8316 4.56686 10.7438 4.41058 10.5876C4.2543 10.4313 4.1665 10.2193 4.1665 9.99831C4.1665 9.7773 4.2543 9.56534 4.41058 9.40905C4.56686 9.25277 4.77882 9.16498 4.99984 9.16498H9.1665V4.99831C9.1665 4.7773 9.2543 4.56534 9.41058 4.40906C9.56686 4.25278 9.77882 4.16498 9.99984 4.16498C10.2209 4.16498 10.4328 4.25278 10.5891 4.40906C10.7454 4.56534 10.8332 4.7773 10.8332 4.99831V9.16498H14.9998C15.2209 9.16498 15.4328 9.25277 15.5891 9.40905C15.7454 9.56534 15.8332 9.7773 15.8332 9.99831C15.8332 10.2193 15.7454 10.4313 15.5891 10.5876C15.4328 10.7438 15.2209 10.8316 14.9998 10.8316Z" fill="#050505"/>
</svg>
