<svg width="16" height="16" viewBox="0 0 16 16" fill="none" xmlns="http://www.w3.org/2000/svg">
<path d="M7.2 12.8C7.2 13.68 6.48 14.4 5.6 14.4C4.72 14.4 4 13.68 4 12.8C4 11.92 4.72 11.2 5.6 11.2C6.48 11.2 7.2 11.92 7.2 12.8ZM5.6 6.40001C4.72 6.40001 4 7.12001 4 8.00001C4 8.88001 4.72 9.60001 5.6 9.60001C6.48 9.60001 7.2 8.88001 7.2 8.00001C7.2 7.12001 6.48 6.40001 5.6 6.40001ZM5.6 1.60001C4.72 1.60001 4 2.32001 4 3.20001C4 4.08001 4.72 4.80001 5.6 4.80001C6.48 4.80001 7.2 4.08001 7.2 3.20001C7.2 2.32001 6.48 1.60001 5.6 1.60001ZM10.4 4.80001C11.28 4.80001 12 4.08001 12 3.20001C12 2.32001 11.28 1.60001 10.4 1.60001C9.52 1.60001 8.8 2.32001 8.8 3.20001C8.8 4.08001 9.52 4.80001 10.4 4.80001ZM10.4 6.40001C9.52 6.40001 8.8 7.12001 8.8 8.00001C8.8 8.88001 9.52 9.60001 10.4 9.60001C11.28 9.60001 12 8.88001 12 8.00001C12 7.12001 11.28 6.40001 10.4 6.40001ZM10.4 11.2C9.52 11.2 8.8 11.92 8.8 12.8C8.8 13.68 9.52 14.4 10.4 14.4C11.28 14.4 12 13.68 12 12.8C12 11.92 11.28 11.2 10.4 11.2Z" fill="#A4B0BE"/>
</svg>
