<svg width="378" height="177" viewBox="0 0 378 177" fill="none" xmlns="http://www.w3.org/2000/svg">
	<path d="M61.0998 176.539C59.8336 176.538 58.5895 176.205 57.4919 175.573L5.45865 145.507C4.3617 144.871 3.45129 143.956 2.81865 142.856C2.18602 141.756 1.85358 140.508 1.85437 139.239V79.111C1.85536 77.8432 2.18858 76.5979 2.82113 75.4996C3.45368 74.4013 4.36319 73.4885 5.45865 72.8526L57.4919 42.7767C58.5893 42.1443 59.8336 41.8115 61.0998 41.8115C62.3661 41.8115 63.61 42.1443 64.7074 42.7767L116.734 72.8526C117.831 73.4876 118.741 74.4001 119.374 75.4985C120.007 76.597 120.341 77.8427 120.342 79.111V139.239C120.341 140.507 120.007 141.753 119.374 142.851C118.741 143.95 117.831 144.862 116.734 145.497L64.7074 175.583C63.6088 176.212 62.3652 176.541 61.0998 176.539ZM46.6344 88.3208C46.2996 88.3988 45.9705 88.4995 45.6494 88.6223L45.4871 88.6902C45.1955 88.8179 44.9128 88.9649 44.641 89.1306L44.4885 89.2391C44.23 89.4034 43.9875 89.5917 43.7643 89.8016C43.1147 90.4161 42.6059 91.1639 42.272 91.9938C42 92.651 41.8519 93.353 41.8353 94.0642V94.2302C42.0358 96.6876 41.8182 99.1613 41.192 101.546C40.6877 103.728 39.9671 105.934 39.2056 108.265V108.285C38.9822 108.963 38.7552 109.671 38.5285 110.38C37.9821 111.879 37.5298 113.411 37.1746 114.967C37.163 115.02 37.1485 115.072 37.1308 115.123C37.0996 115.201 37.0813 115.284 37.0767 115.367L36.7383 116.916C36.5894 117.353 36.4506 117.821 36.3153 118.271L36.1934 118.779L36.0715 119.261C35.7521 120.688 35.5686 122.143 35.5233 123.605V125.672C35.6065 127.128 35.8263 128.573 36.1797 129.988C37.13 133.711 39.0135 137.13 41.6523 139.92C42.5563 140.87 43.5404 141.741 44.5934 142.522H44.6748C45.1043 142.876 45.5566 143.201 46.0287 143.495L46.3299 143.671C46.7563 143.932 47.2706 144.24 47.8358 144.521L48.0829 144.63C50.3334 145.748 52.7575 146.476 55.2514 146.782H55.3902C55.8805 146.886 56.3817 146.928 56.8825 146.907H59.4956C59.9593 146.88 60.4192 146.839 60.8491 146.782L61.5733 146.673C61.9761 146.619 62.3893 146.534 62.7921 146.456L63.5874 146.263C63.9258 146.192 64.2912 146.084 64.5653 146.002L64.7074 145.962C64.9071 145.904 65.1069 145.833 65.3032 145.765H65.3234L65.5705 145.68L66.6096 145.297L67.4863 144.901C67.8044 144.755 68.1632 144.589 68.4712 144.437C68.6743 144.335 68.8571 144.23 69.05 144.115H69.0703L69.3479 143.956L69.378 143.939C69.6793 143.769 69.9872 143.6 70.2783 143.41L71.0976 142.834L71.4359 142.59L72.0044 142.177C72.1054 142.103 72.2028 142.024 72.2957 141.94L72.5799 141.695L72.7592 141.546C73.0401 141.313 73.3314 141.069 73.5987 140.811L82.6284 132.276L84.7066 130.317C84.7776 130.246 84.8384 130.168 84.9061 130.09L85.0482 129.921V129.826C86.0708 128.684 86.6263 127.198 86.6037 125.665C86.5812 124.131 85.9821 122.663 84.9264 121.551C83.925 120.599 82.6253 120.023 81.2477 119.921C81.6851 119.16 81.9777 118.323 82.1108 117.455C82.263 116.633 82.2196 115.787 81.9844 114.985C81.7492 114.183 81.3288 113.448 80.7569 112.84C80.3272 112.405 79.8329 112.041 79.2915 111.759L79.0985 111.65C78.4968 111.364 77.8556 111.17 77.1964 111.074C77.7536 110.116 78.0323 109.021 78.0012 107.913C77.9701 106.805 77.6305 105.727 77.0204 104.802C76.9 104.62 76.7675 104.445 76.6242 104.28C75.8523 103.589 74.907 103.12 73.8896 102.925L84.8351 92.5699C85.5004 91.9448 86.017 91.1781 86.3468 90.3264C86.6765 89.4746 86.8109 88.5596 86.7401 87.6489C86.6693 86.7381 86.3952 85.8549 85.9377 85.0645C85.4803 84.2741 84.8512 83.5967 84.0972 83.0823L83.9042 82.9738C83.6299 82.7945 83.3412 82.6381 83.0412 82.5062L82.9771 82.4757C82.8582 82.4096 82.7268 82.3692 82.5913 82.3571C82.3718 82.2695 82.1451 82.2003 81.9141 82.1504C81.8261 82.1504 81.7382 82.1504 81.6468 82.1504C81.5554 82.1504 81.4675 82.1504 81.3795 82.1504C81.1622 82.1149 80.943 82.0923 80.723 82.0827H79.5757C79.3581 82.13 79.1432 82.19 78.9324 82.2623C78.7714 82.2946 78.6121 82.3352 78.4553 82.3842C78.2447 82.4737 78.0391 82.5744 77.8393 82.6858C77.7716 82.7231 77.7006 82.757 77.6397 82.7841C77.5587 82.8194 77.4794 82.859 77.4026 82.9027C77.1421 83.0752 76.8957 83.2677 76.6651 83.4787C76.5896 83.5295 76.517 83.585 76.4482 83.6447L57.5629 101.824L53.7318 105.443L53.857 102.237L54.0462 95.5111V94.5657C54.0873 92.9394 53.4849 91.3629 52.3697 90.1797C51.2545 88.9966 49.7172 88.3028 48.0932 88.2497H47.873C47.5064 88.2577 47.1409 88.2938 46.7798 88.358L46.6344 88.3208ZM73.2533 76.1461C72.6837 76.1454 72.1345 76.3582 71.7136 76.7425L66.7046 81.6185C66.3872 81.9403 66.1713 82.3487 66.0844 82.7926C65.9976 83.2364 66.0436 83.696 66.2162 84.114C66.3889 84.5319 66.6808 84.8896 67.0553 85.1425C67.4299 85.3953 67.8703 85.5321 68.322 85.5355H68.346C68.939 85.5376 69.509 85.3064 69.9333 84.8917L74.915 80.0021C75.221 79.6772 75.4252 79.2697 75.5025 78.8299C75.5799 78.3901 75.5272 77.9372 75.3505 77.5272C75.1738 77.1171 74.8811 76.7679 74.5085 76.5225C74.1358 76.277 73.6994 76.1462 73.2533 76.1461ZM47.2739 76.0444C46.8115 76.0439 46.36 76.184 45.9787 76.4459C45.5975 76.7079 45.3046 77.0795 45.1388 77.5117C44.973 77.9438 44.9423 78.4163 45.0504 78.8664C45.1585 79.3165 45.4006 79.7231 45.7445 80.0326L50.7667 84.8815C51.1823 85.2948 51.7447 85.5263 52.3304 85.5253H52.3507C52.6525 85.5217 52.9507 85.4582 53.2278 85.3383C53.5049 85.2185 53.7557 85.0448 53.9652 84.8273V84.895C54.3922 84.4657 54.6321 83.8846 54.6321 83.2788C54.6321 82.6729 54.3922 82.0918 53.9652 81.6625L48.9154 76.7458C48.7021 76.5257 48.447 76.3505 48.1651 76.2307C47.8832 76.1108 47.5802 76.0486 47.2739 76.0478V76.0444ZM60.0166 70.4976C59.411 70.4985 58.8307 70.7397 58.4024 71.1685C57.9742 71.5972 57.7332 72.1785 57.7323 72.7848V79.7717C57.7323 80.3783 57.9728 80.9601 58.4012 81.389C58.8296 81.8179 59.4107 82.059 60.0166 82.059C60.6225 82.059 61.2035 81.8179 61.632 81.389C62.0604 80.9601 62.3013 80.3783 62.3013 79.7717V72.7848C62.3004 72.1785 62.0594 71.5972 61.6312 71.1685C61.2029 70.7397 60.6222 70.4985 60.0166 70.4976ZM45.9643 142.116V142.021C44.9707 141.349 44.0316 140.6 43.1553 139.781L44.9355 140.157H45.0574C45.1571 140.156 45.2544 140.128 45.3388 140.075C45.4231 140.021 45.491 139.945 45.5346 139.856L47 137.114L50.6382 138.321C50.7565 138.363 50.8856 138.364 51.0046 138.324C51.1236 138.284 51.2255 138.205 51.2947 138.1L53.0448 135.278L57.3836 135.728H57.4274C57.5274 135.729 57.6258 135.702 57.7121 135.651C57.7983 135.601 57.8694 135.528 57.9182 135.44L59.4919 132.699L62.538 132.177C62.6093 132.171 62.6768 132.143 62.7309 132.096L64.7616 130.836C64.8344 130.798 64.8979 130.745 64.9466 130.679C64.9954 130.613 65.028 130.537 65.0425 130.456C65.0564 130.375 65.0517 130.292 65.0289 130.214C65.006 130.135 64.9657 130.063 64.9107 130.002V130.097C64.874 130.033 64.8245 129.977 64.7653 129.933C64.7061 129.889 64.6384 129.858 64.5666 129.841C64.4947 129.825 64.4204 129.823 64.348 129.837C64.2756 129.851 64.2065 129.879 64.1456 129.921L62.2166 131.1L59.0147 131.662C58.9341 131.675 58.8576 131.707 58.7912 131.755C58.7248 131.802 58.6708 131.865 58.6325 131.937L57.1262 134.566L52.8043 134.112H52.7436C52.6505 134.112 52.5591 134.137 52.4783 134.183C52.3976 134.23 52.33 134.296 52.2829 134.377L50.5572 137.118L46.8781 135.884C46.7512 135.842 46.6131 135.846 46.489 135.896C46.3649 135.947 46.2626 136.04 46.201 136.159L44.7224 138.981L41.7539 138.341C40.8872 137.326 40.1169 136.232 39.4527 135.075C45.917 134.255 61.6784 131.737 68.4609 126.075C67.8941 128.317 66.7345 130.366 65.1036 132.005C63.1456 134.102 60.8677 135.876 58.3549 137.26C54.446 139.403 50.2781 141.033 45.9539 142.112L45.9643 142.116ZM43.1417 139.778L41.2329 139.374C40.8946 139.013 40.5746 138.634 40.2748 138.239C40.3688 138.157 40.4884 138.11 40.6132 138.107H40.7148L41.7572 138.331C41.9772 138.588 42.2076 138.846 42.4343 139.093C42.6611 139.341 42.8911 139.547 43.1111 139.771L43.1417 139.778ZM281.921 139.439C280.734 139.463 279.546 139.419 278.364 139.307C276.874 139.235 275.471 138.585 274.454 137.494C273.436 136.403 272.883 134.957 272.913 133.465C272.943 131.972 273.553 130.55 274.614 129.501C275.675 128.452 277.103 127.859 278.594 127.847C278.77 127.847 278.932 127.847 279.125 127.871C280.062 127.932 280.949 127.959 281.762 127.959C284.123 128.23 286.505 127.681 288.51 126.403C291.441 123.601 291.218 113.372 290.971 100.424V99.7467V99.7297C290.889 95.6839 290.795 91.0959 290.781 86.142C290.775 84.6237 291.372 83.1653 292.44 82.0875C293.508 81.0098 294.961 80.4011 296.477 80.3953C297.994 80.3894 299.451 80.9869 300.527 82.0564C301.604 83.1259 302.212 84.5797 302.217 86.098C302.217 90.5775 302.306 94.769 302.387 98.4657V98.6149C302.387 99.1457 302.398 99.6698 302.421 100.187V100.238C302.759 117.81 302.986 128.416 296.416 134.685C294.469 136.51 292.1 137.824 289.522 138.51C287.043 139.166 284.485 139.475 281.921 139.429V139.439ZM260.436 138.524H260.145H235.116C233.598 138.522 232.143 137.917 231.069 136.843C229.996 135.768 229.392 134.311 229.39 132.791V86.1521C229.381 84.6326 229.972 83.1712 231.035 82.0861C231.565 81.5477 232.198 81.1206 232.895 80.8297C233.593 80.5388 234.341 80.39 235.096 80.3919H260.141H260.433C261.951 80.3919 263.408 80.9959 264.482 82.0711C265.556 83.1463 266.159 84.6045 266.159 86.1251C266.159 87.6456 265.556 89.1039 264.482 90.1791C263.408 91.2543 261.951 91.8584 260.433 91.8584H260.141H240.796V103.718H254.868H255.16C256.678 103.718 258.135 104.322 259.209 105.397C260.283 106.472 260.886 107.931 260.886 109.451C260.886 110.972 260.283 112.43 259.209 113.505C258.135 114.58 256.678 115.184 255.16 115.184H254.868H240.796V127.044H260.141V127.118H260.433C261.951 127.118 263.408 127.723 264.482 128.798C265.556 129.873 266.159 131.331 266.159 132.852C266.159 134.372 265.556 135.83 264.482 136.906C263.408 137.981 261.951 138.585 260.433 138.585L260.436 138.524ZM212.796 138.466C212.623 138.466 212.458 138.466 212.275 138.443C210.905 138.44 209.581 137.946 208.544 137.05C207.507 136.154 206.826 134.916 206.623 133.56L202.392 104.928L191.964 123.652C191.474 124.541 190.755 125.281 189.882 125.797C189.009 126.313 188.013 126.585 186.999 126.585C185.985 126.585 184.99 126.313 184.117 125.797C183.244 125.281 182.524 124.541 182.034 123.652L171.126 104.592L167.027 133.519C166.801 134.851 166.111 136.06 165.079 136.932C164.048 137.803 162.742 138.281 161.392 138.28C161.123 138.279 160.853 138.26 160.587 138.222C159.113 138.015 157.778 137.241 156.864 136.064C155.951 134.888 155.531 133.401 155.693 131.92L162.035 86.6029C162.202 85.4206 162.733 84.3197 163.555 83.4544C164.376 82.589 165.447 82.0023 166.618 81.7761C167.789 81.5499 169.002 81.6956 170.086 82.1928C171.17 82.69 172.072 83.5139 172.666 84.5494L186.928 109.238L200.591 84.6951C201.168 83.642 202.061 82.7973 203.143 82.2809C204.226 81.7645 205.444 81.6026 206.624 81.8183C207.804 82.0339 208.886 82.616 209.717 83.4822C210.548 84.3483 211.085 85.4545 211.253 86.6435L217.944 131.947C218.056 132.691 218.02 133.45 217.839 134.181C217.657 134.911 217.333 135.598 216.886 136.203C216.438 136.808 215.876 137.318 215.231 137.705C214.586 138.092 213.871 138.347 213.127 138.456L212.796 138.466ZM371.823 137.87C370.956 137.873 370.101 137.677 369.321 137.298C368.542 136.92 367.859 136.368 367.325 135.684L348.845 112.138C348.845 115.062 348.812 118.017 348.788 120.874V121.043C348.757 125.038 348.731 128.806 348.731 132.177C348.72 133.688 348.114 135.133 347.044 136.198C345.975 137.263 344.529 137.863 343.021 137.867C342.27 137.863 341.527 137.71 340.834 137.419C340.142 137.127 339.514 136.701 338.986 136.166C338.459 135.631 338.041 134.997 337.759 134.301C337.476 133.604 337.333 132.858 337.338 132.106C337.467 103.338 337.467 88.4699 337.338 86.6571C337.246 85.9142 337.302 85.1603 337.503 84.4393C337.704 83.7183 338.047 83.0444 338.51 82.4566C338.973 81.8688 339.548 81.3789 340.201 81.0152C340.855 80.6515 341.574 80.4211 342.317 80.3376C342.513 80.3172 342.709 80.3072 342.906 80.3072C344.321 80.3128 345.688 80.8301 346.753 81.764C347.818 82.6978 348.511 83.9854 348.703 85.3898C348.879 86.6063 348.879 94.9656 348.879 104.64L364.986 84.0276C365.435 83.3969 366.008 82.8639 366.668 82.4607C367.329 82.0576 368.065 81.7927 368.83 81.6821C369.596 81.5714 370.377 81.6173 371.124 81.8169C371.872 82.0165 372.571 82.3657 373.18 82.8435C373.79 83.3213 374.296 83.9178 374.668 84.5968C375.041 85.2758 375.272 86.0234 375.347 86.7943C375.423 87.5652 375.342 88.3436 375.109 89.0824C374.877 89.8211 374.497 90.5049 373.992 91.0925L360.454 108.374L376.314 128.575L376.344 128.606C377.004 129.451 377.414 130.465 377.527 131.532C377.64 132.599 377.452 133.677 376.984 134.642C376.516 135.607 375.786 136.421 374.879 136.992C373.971 137.562 372.921 137.867 371.85 137.87H371.823ZM319.586 136.406C318.068 136.404 316.613 135.8 315.539 134.725C314.466 133.65 313.862 132.193 313.86 130.673V86.1521C313.86 84.6316 314.463 83.1734 315.537 82.0982C316.611 81.023 318.068 80.4189 319.586 80.4189C321.105 80.4189 322.562 81.023 323.636 82.0982C324.71 83.1734 325.313 84.6316 325.313 86.1521V130.737C325.293 132.245 324.681 133.684 323.61 134.743C322.538 135.802 321.092 136.396 319.586 136.396V136.406ZM58.8965 124.428C56.2146 124.13 53.7106 122.936 51.7888 121.04L64.1592 114.602C64.3802 115.752 64.4745 116.924 64.4401 118.095C64.489 119.083 64.3137 120.069 63.9274 120.979C63.5411 121.889 62.9541 122.7 62.21 123.35C61.2434 124.043 60.0851 124.416 58.8965 124.418V124.428ZM37.6216 124.428C37.2683 124.429 36.9169 124.376 36.5793 124.272C36.5832 122.792 36.7385 121.316 37.0428 119.867L41.8993 122.402C40.7407 123.537 39.2337 124.247 37.6216 124.418V124.428Z" fill="#8854D0" />
	<path d="M68.7673 0.00645983C63.4474 -0.329675 0.112315 12.5555 0.000316313 14.5163C-0.167681 17.4295 66.6394 36.197 66.6394 36.197C66.6394 36.197 135.294 27.0093 135.518 23.1438C135.686 20.4547 72.2393 0.23055 68.7673 0.00645983Z" fill="#253C71" />
	<path d="M99.2869 24.8805C97.2149 18.4939 67.4794 13.2278 67.4794 13.2278C67.4794 13.2278 40.0957 12.8356 37.1838 18.8861C25.5919 43.1998 29.5679 59.1663 29.5679 59.1663C29.5679 59.1663 37.7998 56.7573 40.7117 56.5332C46.8157 55.917 59.0795 58.1579 65.2394 58.55C71.3993 58.9422 83.8311 58.2699 89.823 59.6145C92.679 60.2867 100.519 63.7041 100.519 63.7041C100.519 63.7041 107.071 48.7461 99.2869 24.8805Z" fill="#3A71CB" />
	<path d="M77.2792 16.7572C72.3513 15.6367 67.9833 15.1325 67.9833 15.1325C64.8419 15.1246 61.702 15.2742 58.5755 15.5807C56.6155 16.4771 54.8795 17.7096 54.0396 19.5583C46.7597 35.7488 44.7997 48.4099 44.1277 56.4211C50.6796 56.5892 60.0875 58.2139 65.2394 58.55C70.3913 58.8861 79.9112 58.494 86.4071 59.1102C86.7991 51.099 86.4631 38.3259 81.2552 21.295C80.6952 19.3902 79.1272 17.8777 77.2792 16.7572Z" fill="#4389ED" />
	<path d="M134.51 31.7712C129.974 36.8693 125.607 43.592 117.767 42.3035C109.927 41.015 105.167 32.7797 102.815 25.9449C100.463 19.1102 99.4549 12.6115 95.703 6.72917C94.975 5.49667 93.015 6.61712 93.799 7.84962C101.079 19.3342 99.6789 38.3819 114.911 43.8161C121.575 46.169 127.567 43.1998 132.046 38.1578C136.526 33.1158 138.15 27.6816 134.51 31.7712Z" fill="#F4BA37" />
	<path d="M133.334 28.69C129.582 32.6676 127.174 37.7096 128.966 39.5584H129.022C130.982 41.239 135.798 38.4379 139.494 34.4603C139.494 34.4603 139.662 32.8917 137.31 30.6508H137.254C134.846 28.4659 133.334 28.69 133.334 28.69Z" fill="#F4BA37" />
	<path d="M255.625 172.408H260.689L253.802 151.86H247.898L241.01 172.408H246.074L247.087 169.179H254.612L255.625 172.408ZM248.476 164.776L250.85 157.232L253.223 164.776H248.476Z" fill="#253C71" />
	<path d="M271.348 172.819C275.052 172.819 278.294 170.97 280.03 168.063L276.036 165.715C275.168 167.3 273.403 168.24 271.348 168.24C267.759 168.24 265.444 165.803 265.444 162.134C265.444 158.465 267.759 156.028 271.348 156.028C273.403 156.028 275.139 156.967 276.036 158.553L280.03 156.204C278.265 153.298 275.023 151.449 271.348 151.449C265.242 151.449 260.814 156.087 260.814 162.134C260.814 168.181 265.242 172.819 271.348 172.819Z" fill="#253C71" />
	<path d="M295.079 172.408H300.143L293.256 151.86H287.352L280.464 172.408H285.528L286.541 169.179H294.066L295.079 172.408ZM287.93 164.776L290.304 157.232L292.677 164.776H287.93Z" fill="#253C71" />
	<path d="M309.974 151.86H301.871V172.408H309.974C315.56 172.408 319.814 167.946 319.814 162.134C319.814 156.322 315.56 151.86 309.974 151.86ZM309.974 167.887H306.501V156.38H309.974C313.158 156.38 315.357 158.611 315.357 162.134C315.357 165.656 313.158 167.887 309.974 167.887Z" fill="#253C71" />
	<path d="M327.048 167.887V164.247H334.283V159.786H327.048V156.38H335.006V151.86H322.417V172.408H335.151V167.887H327.048Z" fill="#253C71" />
	<path d="M358.022 151.86H353.392L347.893 160.989L342.394 151.86H337.764V172.408H342.394V160.461L347.632 169.179H348.153L353.392 160.461V172.408H358.022V151.86Z" fill="#253C71" />
	<path d="M378 151.86H372.733L368.884 159.786L365.035 151.86H359.768L366.569 164.512V172.408H371.199V164.512L378 151.86Z" fill="#253C71" />
</svg>
