<svg width="36" height="32" viewBox="0 0 36 32" fill="none" xmlns="http://www.w3.org/2000/svg">
<path d="M26.8242 7C26.0273 4.83334 24.7793 3.14286 23.0801 1.92858C21.3809 0.71429 19.2891 0.107147 16.8047 0.107147C14.6719 0.107147 12.7559 0.601195 11.0566 1.58929C9.35742 2.57739 8.02148 3.92262 7.04883 5.625C6.07617 7.32738 5.51953 9.2381 5.37891 11.3571C3.80859 11.881 2.51953 12.875 1.51172 14.3393C0.503906 15.8036 0 17.4524 0 19.2857C0 21.5238 0.75 23.4643 2.25 25.1071C3.75 26.75 5.53125 27.5714 7.59375 27.5714H10.8281C11.1562 27.5714 11.4258 27.4583 11.6367 27.2321C11.8477 27.006 11.9531 26.7381 11.9531 26.4286C11.9531 26.2619 11.9238 26.1131 11.8652 25.9821C11.8066 25.8512 11.7305 25.7321 11.6367 25.625C11.543 25.5179 11.4258 25.4345 11.2852 25.375C11.1445 25.3155 10.9922 25.2857 10.8281 25.2857H7.59375C6.14062 25.2857 4.88086 24.6905 3.81445 23.5C2.74805 22.3095 2.21484 20.9048 2.21484 19.2857C2.21484 17.8571 2.64844 16.5714 3.51562 15.4286C4.38281 14.2857 5.4375 13.6071 6.67969 13.3929L7.69922 13.2143L7.62891 12.1429H7.59375C7.59375 10.2857 7.96875 8.61905 8.71875 7.14286C9.46875 5.66667 10.5469 4.50596 11.9531 3.66072C13.3594 2.81548 14.9766 2.39286 16.8047 2.39286C21 2.39286 23.707 4.40477 24.9258 8.42858L25.1719 9.21429L25.9805 9.25C28.0898 9.27381 29.9238 10.0476 31.4824 11.5714C33.041 13.0952 33.8203 14.9167 33.8203 17.0357C33.8203 18.3691 33.5625 19.6607 33.0469 20.9107C32.5312 22.1607 31.7754 23.2024 30.7793 24.0357C29.7832 24.8691 28.6641 25.2857 27.4219 25.2857H24.8555C24.5508 25.2857 24.2871 25.3988 24.0645 25.625C23.8418 25.8512 23.7305 26.1191 23.7305 26.4286C23.7305 26.7381 23.8418 27.006 24.0645 27.2321C24.2871 27.4583 24.5508 27.5714 24.8555 27.5714H27.4219C28.7812 27.5238 30.0176 27.1845 31.1309 26.5536C32.2441 25.9226 33.1465 25.1012 33.8379 24.0893C34.5293 23.0774 35.0625 21.9643 35.4375 20.75C35.8125 19.5357 36 18.2976 36 17.0357C36 14.4405 35.1152 12.1905 33.3457 10.2857C31.5762 8.38096 29.4023 7.28572 26.8242 7ZM18.8438 16.1071V16.0714L18.5625 15.7857C18.3984 15.6191 18.2051 15.5357 17.9824 15.5357C17.7598 15.5357 17.5664 15.6191 17.4023 15.7857L17.1211 16.0714V16.1071L13.043 20.6786C12.8789 20.8452 12.7969 21.0417 12.7969 21.2679C12.7969 21.4941 12.8789 21.7024 13.043 21.8929L13.3242 22.0714C13.4883 22.2381 13.6758 22.3036 13.8867 22.2679C14.0977 22.2321 14.2969 22.131 14.4844 21.9643L16.875 19.25V30.75C16.875 31.0833 16.9805 31.3571 17.1914 31.5714C17.4023 31.7857 17.666 31.8929 17.9824 31.8929C18.2988 31.8929 18.5684 31.7857 18.791 31.5714C19.0137 31.3571 19.125 31.0833 19.125 30.75V19.25L21.5859 22.0357C21.75 22.2024 21.9375 22.3036 22.1484 22.3393C22.3594 22.375 22.5469 22.3095 22.7109 22.1429L22.9922 21.9643C23.1562 21.7738 23.2383 21.5655 23.2383 21.3393C23.2383 21.1131 23.1562 20.9167 22.9922 20.75L18.8438 16.1071Z" fill="#8854D0"/>
</svg>
