<svg width="106" height="120" viewBox="0 0 106 120" fill="none" xmlns="http://www.w3.org/2000/svg">
<path d="M53.0698 119.591C51.9492 119.59 50.8482 119.295 49.8769 118.734L3.83068 92.0659C2.85995 91.5011 2.05429 90.6901 1.49445 89.7142C0.934599 88.7383 0.640417 87.6318 0.641115 86.5057V33.1719C0.641991 32.0473 0.936871 30.9427 1.49664 29.9685C2.05641 28.9943 2.86127 28.1847 3.83068 27.6206L49.8769 0.94319C50.8481 0.382249 51.9492 0.0870514 53.0698 0.0870514C54.1903 0.0870514 55.291 0.382249 56.2623 0.94319L102.303 27.6206C103.273 28.1839 104.079 28.9933 104.639 29.9676C105.199 30.9419 105.495 32.0469 105.495 33.1719V86.5057C105.495 87.6307 105.199 88.7357 104.639 89.71C104.079 90.6844 103.273 91.4937 102.303 92.0569L56.2623 118.743C55.29 119.301 54.1895 119.593 53.0698 119.591ZM40.2687 41.341C39.9725 41.4102 39.6812 41.4995 39.3971 41.6085L39.2534 41.6687C38.9954 41.7819 38.7452 41.9124 38.5046 42.0593L38.3697 42.1555C38.141 42.3013 37.9264 42.4684 37.7288 42.6545C37.154 43.1996 36.7037 43.8629 36.4082 44.599C36.1676 45.182 36.0365 45.8047 36.0218 46.4355V46.5827C36.1992 48.7624 36.0066 50.9566 35.4525 53.0717C35.0063 55.0073 34.3686 56.9639 33.6947 59.0318V59.0498C33.497 59.6509 33.2961 60.2791 33.0955 60.9073C32.6119 62.2374 32.2117 63.5965 31.8974 64.9768C31.8871 65.0236 31.8743 65.0698 31.8586 65.1151C31.831 65.1841 31.8148 65.2572 31.8107 65.3315L31.5113 66.705C31.3795 67.0927 31.2567 67.5075 31.1369 67.9072L31.029 68.358L30.9212 68.7849C30.6386 70.051 30.4762 71.3411 30.436 72.638V74.4714C30.5097 75.7632 30.7042 77.0452 31.017 78.3005C31.8579 81.6027 33.5247 84.6348 35.8598 87.1098C36.6599 87.9527 37.5307 88.725 38.4626 89.4181H38.5346C38.9147 89.7317 39.315 90.0198 39.7327 90.2806L39.9993 90.4369C40.3766 90.6684 40.8317 90.9419 41.3319 91.1914L41.5505 91.2876C43.5421 92.2796 45.6873 92.9249 47.8942 93.1961H48.0171C48.451 93.2883 48.8945 93.3257 49.3376 93.3073H51.6501C52.0604 93.2833 52.4675 93.2471 52.8478 93.1961L53.4888 93.0999C53.8452 93.0518 54.2109 92.9766 54.5673 92.9075L55.2711 92.7362C55.5706 92.6731 55.8939 92.577 56.1365 92.5048L56.2623 92.4687C56.439 92.4176 56.6158 92.3545 56.7895 92.2944H56.8074L57.026 92.2193L57.9455 91.8796L58.7213 91.528C59.0029 91.3987 59.3204 91.2515 59.593 91.1162C59.7727 91.0261 59.9345 90.9329 60.1052 90.8307H60.1231L60.3688 90.6895L60.3955 90.6744C60.662 90.5241 60.9346 90.3738 61.1921 90.2055L61.9171 89.6945L62.2166 89.4782L62.7196 89.1115C62.8091 89.0458 62.8952 88.9757 62.9774 88.9011L63.2289 88.6847L63.3876 88.5525C63.6362 88.3451 63.8939 88.1287 64.1305 87.9003L72.1213 80.3292L73.9603 78.592C74.0232 78.5289 74.077 78.4598 74.1369 78.3906L74.2626 78.2404V78.1562C75.1675 77.1433 75.6591 75.8255 75.6392 74.4653C75.6192 73.1051 75.089 71.8024 74.1548 70.8167C73.2686 69.9717 72.1185 69.4608 70.8994 69.3709C71.2864 68.6952 71.5454 67.9533 71.6632 67.1829C71.7979 66.4541 71.7594 65.7037 71.5513 64.9925C71.3431 64.2812 70.9711 63.6293 70.4651 63.0893C70.0848 62.7043 69.6474 62.3809 69.1683 62.1305L68.9975 62.0344C68.465 61.7807 67.8976 61.6084 67.3142 61.5234C67.8073 60.6736 68.054 59.7024 68.0265 58.7194C67.9989 57.7365 67.6983 56.7807 67.1585 55.9601C67.0519 55.7982 66.9347 55.6436 66.8079 55.4972C66.1247 54.8837 65.2883 54.4682 64.3879 54.295L74.074 45.11C74.6628 44.5556 75.12 43.8755 75.4117 43.12C75.7035 42.3645 75.8225 41.5528 75.7598 40.745C75.6971 39.9372 75.4546 39.1538 75.0498 38.4527C74.645 37.7516 74.0882 37.1508 73.421 36.6945L73.2503 36.5982C73.0075 36.4391 72.752 36.3004 72.4865 36.1835L72.4298 36.1564C72.3246 36.0978 72.2083 36.0619 72.0884 36.0512C71.8941 35.9735 71.6935 35.9121 71.4891 35.8679C71.4113 35.8679 71.3335 35.8679 71.2526 35.8679C71.1717 35.8679 71.0939 35.8679 71.016 35.8679C70.8237 35.8364 70.6298 35.8163 70.4351 35.8078H69.4198C69.2272 35.8498 69.037 35.903 68.8505 35.9671C68.708 35.9957 68.567 36.0318 68.4283 36.0752C68.242 36.1546 68.06 36.244 67.8831 36.3428C67.8232 36.3759 67.7605 36.4059 67.7065 36.4299C67.6349 36.4613 67.5647 36.4964 67.4967 36.5351C67.2661 36.6882 67.0481 36.8589 66.8441 37.046C66.7773 37.0912 66.713 37.1404 66.6521 37.1933L49.9398 53.3182L46.5495 56.5282L46.6603 53.6849L46.8277 47.7189V46.8803C46.8641 45.4378 46.331 44.0394 45.3441 42.9899C44.3572 41.9405 42.9968 41.3251 41.5597 41.2779H41.3648C41.0404 41.285 40.7169 41.3171 40.3974 41.3741L40.2687 41.341ZM63.8249 30.542C63.3207 30.5414 62.8347 30.7301 62.4623 31.071L58.0296 35.396C57.7488 35.6815 57.5577 36.0438 57.4808 36.4375C57.404 36.8312 57.4447 37.2388 57.5975 37.6096C57.7502 37.9803 58.0085 38.2976 58.34 38.5219C58.6715 38.7461 59.0612 38.8674 59.461 38.8705H59.4822C60.0069 38.8724 60.5114 38.6673 60.8868 38.2994L65.2954 33.9623C65.5661 33.6741 65.7468 33.3127 65.8153 32.9226C65.8837 32.5324 65.8371 32.1307 65.6807 31.767C65.5243 31.4033 65.2654 31.0935 64.9356 30.8759C64.6058 30.6582 64.2196 30.5421 63.8249 30.542ZM40.8347 30.4518C40.4255 30.4514 40.0259 30.5756 39.6885 30.808C39.3511 31.0404 39.0919 31.3699 38.9452 31.7533C38.7985 32.1366 38.7713 32.5557 38.867 32.9549C38.9626 33.3542 39.1769 33.7149 39.4812 33.9894L43.9255 38.2903C44.2933 38.6569 44.791 38.8623 45.3094 38.8614H45.3273C45.5944 38.8582 45.8582 38.8019 46.1035 38.6956C46.3487 38.5893 46.5706 38.4352 46.7561 38.2423V38.3024C47.1339 37.9216 47.3462 37.4061 47.3462 36.8687C47.3462 36.3314 47.1339 35.8159 46.7561 35.4351L42.2872 31.074C42.0985 30.8787 41.8728 30.7234 41.6233 30.617C41.3738 30.5107 41.1057 30.4555 40.8347 30.4548V30.4518ZM52.1111 25.5317C51.5752 25.5325 51.0617 25.7465 50.6827 26.1268C50.3037 26.5071 50.0905 27.0227 50.0897 27.5605V33.758C50.0897 34.296 50.3025 34.812 50.6816 35.1925C51.0607 35.573 51.575 35.7868 52.1111 35.7868C52.6473 35.7868 53.1615 35.573 53.5407 35.1925C53.9198 34.812 54.133 34.296 54.133 33.758V27.5605C54.1322 27.0227 53.9189 26.5071 53.5399 26.1268C53.161 25.7465 52.6471 25.5325 52.1111 25.5317ZM39.6757 89.0574V88.9732C38.7965 88.3774 37.9654 87.7132 37.1899 86.9866L38.7653 87.3202H38.8732C38.9614 87.3196 39.0475 87.2942 39.1222 87.2469C39.1968 87.1997 39.2569 87.1323 39.2955 87.0527L40.5923 84.6212L43.8118 85.6912C43.9165 85.7285 44.0308 85.7294 44.1361 85.694C44.2414 85.6586 44.3316 85.5889 44.3928 85.4958L45.9415 82.9922L49.7811 83.3919H49.8199C49.9084 83.392 49.9954 83.3683 50.0718 83.3234C50.1481 83.2785 50.211 83.214 50.2542 83.1365L51.6468 80.7049L54.3424 80.2421C54.4055 80.2367 54.4653 80.2115 54.5132 80.17L56.3102 79.0519C56.3746 79.0188 56.4308 78.9711 56.4739 78.9127C56.5171 78.8543 56.546 78.7868 56.5588 78.7152C56.5711 78.6436 56.5669 78.5701 56.5467 78.5003C56.5265 78.4305 56.4909 78.3663 56.4421 78.3125V78.3967C56.4097 78.3399 56.3658 78.2905 56.3134 78.2515C56.2611 78.2125 56.2011 78.1847 56.1376 78.1701C56.074 78.1554 56.0083 78.1541 55.9442 78.1662C55.8801 78.1783 55.8189 78.2036 55.765 78.2404L54.058 79.2863L51.2245 79.7852C51.1532 79.7968 51.0855 79.8248 51.0267 79.867C50.968 79.9093 50.9202 79.9646 50.8864 80.0287L49.5533 82.361L45.7287 81.9583H45.675C45.5926 81.9584 45.5117 81.9801 45.4402 82.0212C45.3688 82.0623 45.309 82.1215 45.2673 82.1927L43.7402 84.6242L40.4844 83.5301C40.372 83.4924 40.2498 83.4962 40.14 83.5409C40.0302 83.5855 39.9397 83.6681 39.8852 83.7737L38.5767 86.2772L35.9498 85.7092C35.1828 84.8089 34.5011 83.839 33.9133 82.8119C39.6339 82.0845 53.5817 79.8514 59.5838 74.8291C59.0823 76.8183 58.0561 78.6352 56.6129 80.0888C54.8801 81.9496 52.8643 83.5229 50.6407 84.7504C47.1815 86.6509 43.4931 88.0974 39.6665 89.0544L39.6757 89.0574ZM37.1779 86.9836L35.4887 86.6259C35.1893 86.3049 34.9062 85.9689 34.6409 85.619C34.724 85.5461 34.8299 85.5046 34.9403 85.5018H35.0303L35.9527 85.7002C36.1474 85.9286 36.3513 86.1571 36.5519 86.3765C36.7526 86.5959 36.9561 86.7792 37.1508 86.9775L37.1779 86.9836ZM51.12 73.3684C48.7466 73.1037 46.5308 72.045 44.83 70.3628L55.7771 64.6523C55.9727 65.6729 56.0561 66.712 56.0257 67.7509C56.069 68.6271 55.9138 69.5017 55.572 70.3091C55.2301 71.1164 54.7107 71.8356 54.0522 72.4125C53.1968 73.0267 52.1717 73.3577 51.12 73.3593V73.3684ZM32.293 73.3684C31.9803 73.3692 31.6693 73.3226 31.3705 73.2301C31.3741 71.917 31.5114 70.6078 31.7807 69.3229L36.0785 71.571C35.0532 72.5778 33.7195 73.2079 32.293 73.3593V73.3684Z" fill="white"/>
</svg>
